# xmcd CD database file
#
# Track frame offsets:
#	150
#	4852
#	13855
#	20800
#	38487
#	53897
#	78427
#	86757
#	104082
#	116067
#	124652
#	128625
#	154940
#	161775
#	177152
#	194832
#
# Disc length: 2752 seconds
#
# Revision: 0
# Processed by: cddbd v1.5.1PL0 Copyright (c) Steve Scherf et al.
# Submitted via: CDex 1.51
#
DISCID=da0abe10
DTITLE=Walt Bender - What happend in '67
DYEAR=1993
DGENRE=Blues
TTITLE0=Doolin
TTITLE1=The food is terrible
TTITLE2=Poem
TTITLE3=Hangman
TTITLE4=Under the kilt
TTITLE5=And the end of the time
TTITLE6=Country
TTITLE7=Burnin in the fire
TTITLE8=Invasion of the cockroaches
TTITLE9=Billiards in heaven
TTITLE10=What happend in '67
TTITLE11=We used to
TTITLE12=Valse verte
TTITLE13=Fatman's Blues
TTITLE14=The counter
TTITLE15=Hooray
EXTD=YEAR: 1993
EXTT0=
EXTT1=
EXTT2=
EXTT3=
EXTT4=
EXTT5=
EXTT6=
EXTT7=
EXTT8=
EXTT9=
EXTT10=
EXTT11=
EXTT12=
EXTT13=
EXTT14=
EXTT15=
PLAYORDER=
